#Comment line ignore any data following # character 
#Hierarchical Translation and Rotation (.htr) file 
[Header]	
#Header keywords are followed by a single value 
FileType HTR		#Single word string
DataType HTRS		#Translation followed by rotation and scale data
FileVersion 1		#integer
NumSegments 84		#integer
NumFrames 2		#integer
DataFrameRate 30		#integer, data frame rate in this file
EulerRotationOrder ZYX
CalibrationUnits mm
RotationUnits Degrees
GlobalAxisofGravity Y
BoneLengthAxis Y
ScaleFactor 1.00
[SegmentNames&Hierarchy]
#CHILD	PARENT
MASTER GLOBAL
root MASTER
chest root
L_mid_tent01 root
R_mid_tent01 root
spine01 root
Bip01_Neck chest
L_humerus chest
R_humerus chest
weapon_bone chest
Bip01_Head Bip01_Neck
eye_left_bone Bip01_Head
eye_right_bone Bip01_Head
L_forearm L_humerus
L_front_hand L_forearm
L_weapon_bone L_forearm
L_front_hand01_01 L_front_hand
L_front_hand02_01 L_front_hand
L_front_hand03_01 L_front_hand
L_front_hand01_02 L_front_hand01_01
L_front_hand02_02 L_front_hand02_01
L_front_hand03_02 L_front_hand03_01
R_forearm R_humerus
R_front_hand R_forearm
R_weapon_bone R_forearm
R_front_hand01_01 R_front_hand
R_front_hand02_01 R_front_hand
R_front_hand03_01 R_front_hand
R_front_hand01_02 R_front_hand01_01
R_front_hand02_02 R_front_hand02_01
R_front_hand03_02 R_front_hand03_01
null_rope01_connect L_mid_tent01
Rope1_Seg01 null_rope01_connect
Rope1_Seg02 Rope1_Seg01
Rope1_Seg03 Rope1_Seg02
Rope1_Seg04 Rope1_Seg03
Rope1_Seg05 Rope1_Seg04
Rope1_Seg06 Rope1_Seg05
Rope1_Seg07 Rope1_Seg06
Rope1_Seg09 Rope1_Seg07
L_mid_hand01 Rope1_Seg09
L_mid_hand02 Rope1_Seg09
L_mid_hand03 Rope1_Seg09
null_rope02_connect R_mid_tent01
Rope2_Seg01 null_rope02_connect
Rope2_Seg02 Rope2_Seg01
Rope2_Seg03 Rope2_Seg02
Rope2_Seg04 Rope2_Seg03
Rope2_Seg05 Rope2_Seg04
Rope2_Seg06 Rope2_Seg05
Rope2_Seg07 Rope2_Seg06
Rope2_Seg09 Rope2_Seg07
R_mid_hand01 Rope2_Seg09
R_mid_hand02 Rope2_Seg09
R_mid_hand03 Rope2_Seg09
spine02 spine01
spine03 spine02
pelvis spine03
null_rope03_connect pelvis
null_rope04_connect pelvis
Rope3_Seg01 null_rope03_connect
Rope3_Seg02 Rope3_Seg01
Rope3_Seg03 Rope3_Seg02
Rope3_Seg04 Rope3_Seg03
Rope3_Seg05 Rope3_Seg04
Rope3_Seg06 Rope3_Seg05
Rope3_Seg07 Rope3_Seg06
Rope3_Seg08 Rope3_Seg07
Rope3_Seg09 Rope3_Seg08
R_rear_hand01 Rope3_Seg09
R_rear_hand02 Rope3_Seg09
R_rear_hand03 Rope3_Seg09
Rope4_Seg01 null_rope04_connect
Rope4_Seg02 Rope4_Seg01
Rope4_Seg03 Rope4_Seg02
Rope4_Seg04 Rope4_Seg03
Rope4_Seg05 Rope4_Seg04
Rope4_Seg06 Rope4_Seg05
Rope4_Seg07 Rope4_Seg06
Rope4_Seg08 Rope4_Seg07
Rope4_Seg09 Rope4_Seg08
L_rear_hand01 Rope4_Seg09
L_rear_hand02 Rope4_Seg09
L_rear_hand03 Rope4_Seg09
[BasePosition]
#SegmentName Tx, Ty, Tz, Rx, Ry, Rz, BoneLength
MASTER 0.000000 0.000000 0.000000 -90.000000 0.000000 0.000000 10.000000 
root 0.000000 0.000000 0.000000 0.000000 0.000000 0.000000 10.000000 
chest 0.000000 0.000000 0.000000 0.000000 0.000000 0.000000 10.000000 
L_mid_tent01 0.000000 0.000000 0.000000 0.000000 0.000000 0.000000 10.000000 
R_mid_tent01 0.000000 0.000000 0.000000 0.000000 0.000000 0.000000 10.000000 
spine01 0.000000 0.000000 0.000000 0.000000 0.000000 0.000000 10.000000 
Bip01_Neck 0.000000 0.000000 0.000000 0.000000 0.000000 0.000000 10.000000 
L_humerus 0.000000 0.000000 0.000000 0.000000 0.000000 0.000000 10.000000 
R_humerus 0.000000 0.000000 0.000000 0.000000 0.000000 0.000000 10.000000 
weapon_bone 0.000000 0.000000 0.000000 0.000000 0.000000 0.000000 10.000000 
Bip01_Head 0.000000 0.000000 0.000000 0.000000 0.000000 0.000000 10.000000 
eye_left_bone 0.000000 0.000000 0.000000 0.000000 0.000000 0.000000 10.000000 
eye_right_bone 0.000000 0.000000 0.000000 0.000000 0.000000 0.000000 10.000000 
L_forearm 0.000000 0.000000 0.000000 0.000000 0.000000 0.000000 10.000000 
L_front_hand 0.000000 0.000000 0.000000 0.000000 0.000000 0.000000 10.000000 
L_weapon_bone 0.000000 0.000000 0.000000 0.000000 0.000000 0.000000 10.000000 
L_front_hand01_01 0.000000 0.000000 0.000000 0.000000 0.000000 0.000000 10.000000 
L_front_hand02_01 0.000000 0.000000 0.000000 0.000000 0.000000 0.000000 10.000000 
L_front_hand03_01 0.000000 0.000000 0.000000 0.000000 0.000000 0.000000 10.000000 
L_front_hand01_02 0.000000 0.000000 0.000000 0.000000 0.000000 0.000000 10.000000 
L_front_hand02_02 0.000000 0.000000 0.000000 0.000000 0.000000 0.000000 10.000000 
L_front_hand03_02 0.000000 0.000000 0.000000 0.000000 0.000000 0.000000 10.000000 
R_forearm 0.000000 0.000000 0.000000 0.000000 0.000000 0.000000 10.000000 
R_front_hand 0.000000 0.000000 0.000000 0.000000 0.000000 0.000000 10.000000 
R_weapon_bone 0.000000 0.000000 0.000000 0.000000 0.000000 0.000000 10.000000 
R_front_hand01_01 0.000000 0.000000 0.000000 0.000000 0.000000 0.000000 10.000000 
R_front_hand02_01 0.000000 0.000000 0.000000 0.000000 0.000000 0.000000 10.000000 
R_front_hand03_01 0.000000 0.000000 0.000000 0.000000 0.000000 0.000000 10.000000 
R_front_hand01_02 0.000000 0.000000 0.000000 0.000000 0.000000 0.000000 10.000000 
R_front_hand02_02 0.000000 0.000000 0.000000 0.000000 0.000000 0.000000 10.000000 
R_front_hand03_02 0.000000 0.000000 0.000000 0.000000 0.000000 0.000000 10.000000 
null_rope01_connect 0.000000 0.000000 0.000000 0.000000 0.000000 0.000000 10.000000 
Rope1_Seg01 0.000000 0.000000 0.000000 0.000000 0.000000 0.000000 10.000000 
Rope1_Seg02 0.000000 0.000000 0.000000 0.000000 0.000000 0.000000 10.000000 
Rope1_Seg03 0.000000 0.000000 0.000000 0.000000 0.000000 0.000000 10.000000 
Rope1_Seg04 0.000000 0.000000 0.000000 0.000000 0.000000 0.000000 10.000000 
Rope1_Seg05 0.000000 0.000000 0.000000 0.000000 0.000000 0.000000 10.000000 
Rope1_Seg06 0.000000 0.000000 0.000000 0.000000 0.000000 0.000000 10.000000 
Rope1_Seg07 0.000000 0.000000 0.000000 0.000000 0.000000 0.000000 10.000000 
Rope1_Seg09 0.000000 0.000000 0.000000 0.000000 0.000000 0.000000 10.000000 
L_mid_hand01 0.000000 0.000000 0.000000 0.000000 0.000000 0.000000 10.000000 
L_mid_hand02 0.000000 0.000000 0.000000 0.000000 0.000000 0.000000 10.000000 
L_mid_hand03 0.000000 0.000000 0.000000 0.000000 0.000000 0.000000 10.000000 
null_rope02_connect 0.000000 0.000000 0.000000 0.000000 0.000000 0.000000 10.000000 
Rope2_Seg01 0.000000 0.000000 0.000000 0.000000 0.000000 0.000000 10.000000 
Rope2_Seg02 0.000000 0.000000 0.000000 0.000000 0.000000 0.000000 10.000000 
Rope2_Seg03 0.000000 0.000000 0.000000 0.000000 0.000000 0.000000 10.000000 
Rope2_Seg04 0.000000 0.000000 0.000000 0.000000 0.000000 0.000000 10.000000 
Rope2_Seg05 0.000000 0.000000 0.000000 0.000000 0.000000 0.000000 10.000000 
Rope2_Seg06 0.000000 0.000000 0.000000 0.000000 0.000000 0.000000 10.000000 
Rope2_Seg07 0.000000 0.000000 0.000000 0.000000 0.000000 0.000000 10.000000 
Rope2_Seg09 0.000000 0.000000 0.000000 0.000000 0.000000 0.000000 10.000000 
R_mid_hand01 0.000000 0.000000 0.000000 0.000000 0.000000 0.000000 10.000000 
R_mid_hand02 0.000000 0.000000 0.000000 0.000000 0.000000 0.000000 10.000000 
R_mid_hand03 0.000000 0.000000 0.000000 0.000000 0.000000 0.000000 10.000000 
spine02 0.000000 0.000000 0.000000 0.000000 0.000000 0.000000 10.000000 
spine03 0.000000 0.000000 0.000000 0.000000 0.000000 0.000000 10.000000 
pelvis 0.000000 0.000000 0.000000 0.000000 0.000000 0.000000 10.000000 
null_rope03_connect 0.000000 0.000000 0.000000 0.000000 0.000000 0.000000 10.000000 
null_rope04_connect 0.000000 0.000000 0.000000 0.000000 0.000000 0.000000 10.000000 
Rope3_Seg01 0.000000 0.000000 0.000000 0.000000 0.000000 0.000000 10.000000 
Rope3_Seg02 0.000000 0.000000 0.000000 0.000000 0.000000 0.000000 10.000000 
Rope3_Seg03 0.000000 0.000000 0.000000 0.000000 0.000000 0.000000 10.000000 
Rope3_Seg04 0.000000 0.000000 0.000000 0.000000 0.000000 0.000000 10.000000 
Rope3_Seg05 0.000000 0.000000 0.000000 0.000000 0.000000 0.000000 10.000000 
Rope3_Seg06 0.000000 0.000000 0.000000 0.000000 0.000000 0.000000 10.000000 
Rope3_Seg07 0.000000 0.000000 0.000000 0.000000 0.000000 0.000000 10.000000 
Rope3_Seg08 0.000000 0.000000 0.000000 0.000000 0.000000 0.000000 10.000000 
Rope3_Seg09 0.000000 0.000000 0.000000 0.000000 0.000000 0.000000 10.000000 
R_rear_hand01 0.000000 0.000000 0.000000 0.000000 0.000000 0.000000 10.000000 
R_rear_hand02 0.000000 0.000000 0.000000 0.000000 0.000000 0.000000 10.000000 
R_rear_hand03 0.000000 0.000000 0.000000 0.000000 0.000000 0.000000 10.000000 
Rope4_Seg01 0.000000 0.000000 0.000000 0.000000 0.000000 0.000000 10.000000 
Rope4_Seg02 0.000000 0.000000 0.000000 0.000000 0.000000 0.000000 10.000000 
Rope4_Seg03 0.000000 0.000000 0.000000 0.000000 0.000000 0.000000 10.000000 
Rope4_Seg04 0.000000 0.000000 0.000000 0.000000 0.000000 0.000000 10.000000 
Rope4_Seg05 0.000000 0.000000 0.000000 0.000000 0.000000 0.000000 10.000000 
Rope4_Seg06 0.000000 0.000000 0.000000 0.000000 0.000000 0.000000 10.000000 
Rope4_Seg07 0.000000 0.000000 0.000000 0.000000 0.000000 0.000000 10.000000 
Rope4_Seg08 0.000000 0.000000 0.000000 0.000000 0.000000 0.000000 10.000000 
Rope4_Seg09 0.000000 0.000000 0.000000 0.000000 0.000000 0.000000 10.000000 
L_rear_hand01 0.000000 0.000000 0.000000 0.000000 0.000000 0.000000 10.000000 
L_rear_hand02 0.000000 0.000000 0.000000 0.000000 0.000000 0.000000 10.000000 
L_rear_hand03 0.000000 0.000000 0.000000 0.000000 0.000000 0.000000 10.000000 
#Beginning of Data. Separated by tabs
#Fr	Tx	Ty	Tz	Rx	Ry	Rz	SF
[MASTER]
14 -0.000854 5866.717773 1440.555054 0.001660 0.001660 0.001660 6040.991211
15 -0.000904 6226.023438 1416.368164 0.001660 0.001660 0.001660 6385.097656
[root]
14 -34.888374 -39.834591 1495.017456 -81.761078 -32.701435 -97.226692 1495.954956
15 -36.119915 -43.145760 1498.145508 -82.297981 -32.240509 -97.074966 1499.201782
[chest]
14 -84.512650 -34.090519 0.000000 -1.218516 2.019075 -160.894470 91.129311
15 -84.512650 -34.090519 0.000000 -1.262552 1.999484 -162.848724 91.129311
[L_mid_tent01]
14 27.299330 22.179247 -249.918701 -4.668355 7.067848 41.832638 252.381714
15 27.299347 22.179258 -249.918701 -6.046701 8.546846 40.848152 252.381729
[R_mid_tent01]
14 23.228794 24.509907 226.238495 177.376572 -7.439891 44.897491 228.744751
15 23.228794 24.509907 226.238495 179.558456 -8.025707 43.484962 228.744751
[spine01]
14 -0.361383 -0.195265 0.000000 0.002057 0.001131 32.395416 0.410763
15 -0.361383 -0.195265 0.000000 0.002055 0.001135 32.189465 0.410763
[Bip01_Neck]
14 165.484543 71.581718 0.000119 176.643677 -1.657967 43.431911 180.302734
15 165.484543 71.581718 0.000119 176.643677 -1.657967 43.431911 180.302734
[L_humerus]
14 -13.983130 -135.272980 -120.471481 -7.099333 63.593979 82.730377 181.680161
15 -13.983130 -135.272980 -120.471481 -7.096533 63.602463 82.736244 181.680161
[R_humerus]
14 -13.983309 -135.273102 125.287651 25.555712 -64.368950 70.173347 184.909012
15 -13.983309 -135.273102 125.287651 25.550528 -64.374016 70.177284 184.909012
[weapon_bone]
14 235.964890 -300.705902 0.000000 0.000000 -89.951546 -128.212341 382.234833
15 235.964890 -300.705902 0.000000 0.000000 -89.951546 -128.212341 382.234833
[Bip01_Head]
14 213.666992 185.095520 19.782143 4.440152 -1.457900 -43.897720 283.381836
15 213.648071 185.148315 19.103886 4.441978 -1.435668 -43.902122 283.355530
[eye_left_bone]
14 -24.626970 125.451866 -64.772606 0.000000 -90.000000 -99.840431 143.318359
15 -24.626970 125.451866 -64.772606 0.000000 -90.000000 -99.840431 143.318359
[eye_right_bone]
14 -24.626970 125.451866 64.327362 0.000000 -89.965736 80.156380 143.117676
15 -24.626970 125.451866 64.327362 0.000000 -89.965736 80.156380 143.117676
[L_forearm]
14 322.776093 0.000000 -0.000119 0.000432 -0.002307 -111.209717 322.776093
15 322.776093 0.000000 -0.000119 0.000432 -0.002307 -111.200714 322.776093
[L_front_hand]
14 241.149185 -0.042021 -3.300071 -178.667953 -1.835447 -27.422342 241.171753
15 241.149185 -0.042021 -3.300071 -178.667953 -1.835447 -27.422350 241.171753
[L_weapon_bone]
14 156.183838 0.000000 0.000000 0.000014 0.000007 0.000001 156.183838
15 156.183838 0.000000 0.000000 0.000014 0.000007 0.000001 156.183838
[L_front_hand01_01]
14 86.095154 20.947098 -0.655860 -0.273650 -0.533287 65.061523 88.609184
15 86.095154 20.947098 -0.655860 -0.274633 -0.532782 65.272827 88.609184
[L_front_hand02_01]
14 86.935165 -11.437475 24.513514 140.858566 -54.305298 -45.287003 91.046425
15 86.935165 -11.437475 24.513514 141.090271 -54.445614 -45.572052 91.046425
[L_front_hand03_01]
14 86.637497 -14.123976 -20.424902 -141.258987 52.537949 -47.363300 90.126129
15 86.637497 -14.123976 -20.424902 -141.476303 52.677540 -47.637543 90.126129
[L_front_hand01_02]
14 71.020905 -0.000179 0.000030 0.000315 -0.002326 -105.409866 71.020905
15 71.020905 -0.000179 0.000030 0.000315 -0.002326 -105.405197 71.020905
[L_front_hand02_02]
14 71.020927 -0.000119 0.000060 0.000315 -0.002326 -105.409866 71.020927
15 71.020927 -0.000119 0.000060 0.000315 -0.002326 -105.405197 71.020927
[L_front_hand03_02]
14 71.020905 -0.000060 0.000060 0.000315 -0.002326 -105.409866 71.020905
15 71.020905 -0.000060 0.000060 0.000315 -0.002326 -105.405197 71.020905
[R_forearm]
14 322.776428 -0.000060 0.000030 0.201055 0.068322 -109.861427 322.776428
15 322.776428 -0.000060 0.000030 0.201052 0.068332 -109.867470 322.776428
[R_front_hand]
14 238.847015 -0.006795 2.210259 -2.635298 -10.645461 -26.312506 238.857239
15 238.847015 -0.006795 2.210259 -2.635298 -10.645461 -26.312506 238.857239
[R_weapon_bone]
14 155.664093 0.002503 -0.000030 0.003487 0.001180 -90.988930 155.664078
15 155.664093 0.002503 -0.000030 0.003487 0.001180 -90.988930 155.664078
[R_front_hand01_01]
14 87.624611 14.231146 22.918642 -138.707092 -52.961746 42.720669 91.683487
15 87.624611 14.231146 22.918642 -138.456909 -52.798630 42.405624 91.683487
[R_front_hand02_01]
14 89.356956 14.367283 -19.491137 139.537384 51.404167 45.405891 92.579636
15 89.356956 14.367283 -19.491137 139.300415 51.240429 45.105949 92.579636
[R_front_hand03_01]
14 87.286232 -22.307278 -0.143439 0.065057 -0.451640 -63.223511 90.091743
15 87.286232 -22.307278 -0.143439 0.064051 -0.451784 -62.968163 90.091743
[R_front_hand01_02]
14 71.020905 0.000060 0.000119 0.002323 -0.000334 106.381714 71.020905
15 71.020905 0.000060 0.000119 0.002323 -0.000334 106.381714 71.020905
[R_front_hand02_02]
14 71.020844 -0.000030 -0.000119 0.002323 -0.000334 106.381714 71.020836
15 71.020844 -0.000030 -0.000119 0.002323 -0.000334 106.381714 71.020836
[R_front_hand03_02]
14 71.020905 0.000000 0.000030 0.002323 -0.000334 106.381714 71.020905
15 71.020905 0.000000 0.000030 0.002323 -0.000334 106.381714 71.020905
[null_rope01_connect]
14 328.732483 0.000000 -0.000238 -82.412880 -80.938629 162.916290 328.732483
15 328.732483 0.000000 -0.000238 -94.178833 -79.505096 174.901291 328.732483
[Rope1_Seg01]
14 -0.000026 -0.000053 0.000105 24.159302 18.047079 -116.915436 0.000121
15 -0.000025 -0.000051 0.000102 82.753998 15.710962 -126.739845 0.000117
[Rope1_Seg02]
14 139.999863 -0.000179 0.000000 -25.047470 -1.483306 15.478931 139.999863
15 139.999863 -0.000179 0.000000 -68.011406 16.657221 9.945397 139.999863
[Rope1_Seg03]
14 139.999924 0.000060 -0.000060 -0.633401 -7.867674 8.927939 139.999924
15 139.999924 0.000060 -0.000060 -8.506195 -4.502208 12.324677 139.999924
[Rope1_Seg04]
14 139.999924 -0.000060 -0.000119 -8.749297 5.789870 1.644383 139.999924
15 139.999924 -0.000060 -0.000119 -9.949319 5.864811 2.582980 139.999924
[Rope1_Seg05]
14 139.999832 0.000119 -0.000060 -11.146177 7.472737 0.327186 139.999832
15 139.999832 0.000119 -0.000060 -11.658390 7.481241 0.801197 139.999832
[Rope1_Seg06]
14 139.999954 0.000119 -0.000060 -5.190285 2.492853 1.106857 139.999954
15 139.999954 0.000119 -0.000060 -5.813389 2.577639 1.569814 139.999954
[Rope1_Seg07]
14 139.999985 0.000060 0.000000 -3.533512 1.547918 0.879288 139.999985
15 139.999985 0.000060 0.000000 -3.934304 1.587974 1.228957 139.999985
[Rope1_Seg09]
14 121.602913 0.000119 -0.000089 -89.793175 -1.359789 0.847147 121.602913
15 121.602913 0.000119 -0.000089 -89.793175 -1.359789 0.847147 121.602913
[L_mid_hand01]
14 103.859421 1.038730 8.195221 115.405022 -54.702587 -21.718943 104.187431
15 103.859421 1.038730 8.195221 118.511887 -58.710995 -25.432131 104.187431
[L_mid_hand02]
14 105.572853 -4.139662 -10.864139 -156.173538 38.796780 -54.226360 106.211075
15 105.572853 -4.139662 -10.864139 -159.626389 40.490177 -59.638344 106.211075
[L_mid_hand03]
14 104.641464 17.579376 -3.913581 -10.557026 15.605444 59.191402 106.179977
15 104.641464 17.579376 -3.913581 -9.285485 16.381811 63.801453 106.179977
[null_rope02_connect]
14 328.732849 0.000179 -0.000119 -138.885376 82.260612 -37.745823 328.732849
15 328.732849 0.000179 -0.000119 -146.245834 80.912605 -45.916920 328.732849
[Rope2_Seg01]
14 0.000050 0.000105 0.000000 93.967407 6.714306 -86.015388 0.000117
15 0.000051 0.000102 0.000000 86.450394 3.780909 -75.299301 0.000114
[Rope2_Seg02]
14 139.999741 -0.000060 -0.000119 5.903275 4.560149 -7.436009 139.999756
15 139.999741 -0.000060 -0.000119 11.380573 -1.512119 -7.744689 139.999756
[Rope2_Seg03]
14 140.000107 0.000030 0.000000 13.486342 4.310617 -10.854724 140.000107
15 140.000107 0.000030 0.000000 14.079478 -0.347466 -9.420248 140.000107
[Rope2_Seg04]
14 139.999802 0.000000 -0.000060 -0.773827 0.350064 0.325720 139.999802
15 139.999802 0.000000 -0.000060 -2.176082 -1.538358 2.276975 139.999802
[Rope2_Seg05]
14 139.999985 -0.000060 0.000119 -18.770884 -1.273216 15.917153 139.999985
15 139.999985 -0.000060 0.000119 -14.063853 -1.593705 13.735410 139.999985
[Rope2_Seg06]
14 139.999893 -0.000030 -0.000119 -8.883887 -5.117846 12.038797 139.999893
15 139.999893 -0.000030 -0.000119 -6.640581 -3.553319 9.312396 139.999893
[Rope2_Seg07]
14 139.999893 0.000060 -0.000060 -3.137635 -3.586667 5.933506 139.999893
15 139.999893 0.000060 -0.000060 -2.689690 -2.700263 4.930825 139.999893
[Rope2_Seg09]
14 121.338966 0.000089 -0.000060 33.793236 -1.359788 -0.847141 121.338966
15 121.338966 0.000089 -0.000060 33.793236 -1.359788 -0.847141 121.338966
[R_mid_hand01]
14 104.680779 11.144459 -10.335981 -36.578453 32.644390 38.740570 105.778534
15 104.680779 11.144459 -10.335981 -34.826839 34.540043 41.908749 105.778534
[R_mid_hand02]
14 104.070427 2.443552 8.231699 69.973366 -43.581707 14.639650 104.424065
15 104.070427 2.443552 8.231699 68.824303 -46.622643 16.260368 104.424065
[R_mid_hand03]
14 106.028137 -11.221827 -5.996406 -170.161224 12.441347 -48.449886 106.788818
15 106.028137 -11.221827 -5.996406 -170.883774 12.973575 -51.735550 106.788818
[spine02]
14 129.756927 0.001550 0.000119 0.539668 -4.023637 -15.504617 129.756927
15 129.756927 0.001550 0.000119 0.539141 -4.023707 -15.489614 129.756927
[spine03]
14 78.614197 0.081529 -4.899006 2.000918 3.776135 18.087353 78.766739
15 78.614212 0.081533 -4.899006 2.000588 3.776311 18.077328 78.766747
[pelvis]
14 169.435242 0.051022 0.000000 -0.070464 -0.177683 17.353209 169.435257
15 169.435242 0.051022 0.000000 -0.070456 -0.177686 17.348211 169.435257
[null_rope03_connect]
14 -1.257226 -2.466202 137.391083 -16.113447 -81.471657 86.981041 137.418976
15 -1.257226 -2.466202 137.391083 -18.272787 -81.803146 88.848015 137.418976
[null_rope04_connect]
14 -1.259640 -2.480268 -137.844437 -16.113447 -81.471657 86.981041 137.872513
15 -1.259640 -2.480268 -137.844437 -18.272787 -81.803146 88.848015 137.872513
[Rope3_Seg01]
14 -0.000035 0.000000 -0.000047 -139.373917 19.985495 -105.007530 0.000059
15 -0.000035 0.000000 -0.000051 -137.305038 17.775764 -101.501465 0.000062
[Rope3_Seg02]
14 139.999924 -0.000119 0.000060 0.791588 -5.215679 -9.253058 139.999924
15 139.999924 -0.000119 0.000060 0.722939 -4.088620 -7.963628 139.999924
[Rope3_Seg03]
14 139.999924 -0.000119 0.000119 0.561643 -5.021668 -8.565533 139.999924
15 139.999924 -0.000119 0.000119 0.479772 -4.091621 -7.404327 139.999924
[Rope3_Seg04]
14 139.999924 0.000119 0.000000 0.813018 -9.411222 -11.094142 139.999924
15 139.999924 0.000119 0.000000 0.592714 -8.244344 -9.696908 139.999924
[Rope3_Seg05]
14 139.999924 -0.000238 0.000060 0.147002 -2.180372 -4.513587 139.999924
15 139.999924 -0.000238 0.000060 0.053635 -0.600406 -3.307785 139.999924
[Rope3_Seg06]
14 139.999893 -0.000119 -0.000060 0.060535 7.911860 2.643472 139.999893
15 139.999893 -0.000119 -0.000060 0.597889 10.208600 4.003395 139.999893
[Rope3_Seg07]
14 139.999771 0.000060 -0.000119 3.046917 18.112885 9.002004 139.999771
15 139.999771 0.000060 -0.000119 3.376610 16.245029 7.465155 139.999771
[Rope3_Seg08]
14 139.999985 -0.000060 0.000000 3.496057 11.259014 4.066053 139.999985
15 139.999985 -0.000060 0.000000 3.375188 9.643565 3.082257 139.999985
[Rope3_Seg09]
14 90.185997 -0.000179 -0.000060 89.793228 -1.359877 -0.847183 90.185997
15 90.185997 -0.000179 -0.000060 89.793228 -1.359877 -0.847183 90.185997
[R_rear_hand01]
14 103.366196 -6.073594 -10.757982 -166.165070 20.624767 -44.436901 104.101845
15 103.366196 -6.073594 -10.757982 -167.736008 21.565809 -48.800846 104.101845
[R_rear_hand02]
14 100.509819 12.039542 -7.992327 -29.134808 26.762827 41.953499 101.543350
15 100.509819 12.039542 -7.992327 -27.197788 28.737711 46.115414 101.543350
[R_rear_hand03]
14 101.539970 5.215704 5.435467 81.948593 -44.972103 9.574173 101.819031
15 101.539970 5.215704 5.435467 81.295578 -49.108295 10.466789 101.819031
[Rope4_Seg01]
14 0.000010 0.000038 -0.000114 45.749641 -8.369805 -83.561752 0.000121
15 0.000010 0.000038 -0.000114 47.915909 -9.689670 -94.823402 0.000121
[Rope4_Seg02]
14 139.999985 0.000060 0.000119 1.724807 -1.899072 -8.483945 139.999985
15 139.999985 0.000060 0.000119 0.192350 1.112606 -1.757270 139.999985
[Rope4_Seg03]
14 139.999924 0.000000 -0.000238 0.590866 -3.567464 -4.921850 139.999924
15 139.999924 0.000000 -0.000238 -0.030894 -1.719370 0.521502 139.999924
[Rope4_Seg04]
14 139.999985 0.000000 0.000119 0.230966 -1.847374 -3.173071 139.999985
15 139.999985 0.000000 0.000119 0.050926 -0.705586 0.031040 139.999985
[Rope4_Seg05]
14 139.999802 -0.000060 -0.000119 0.233811 5.039318 -2.488245 139.999802
15 139.999802 -0.000060 -0.000119 0.410822 7.199021 -5.242045 139.999802
[Rope4_Seg06]
14 139.999924 0.000000 0.000060 0.753378 8.095852 -2.201130 139.999924
15 139.999924 0.000000 0.000060 1.307874 9.375670 -6.857921 139.999924
[Rope4_Seg07]
14 139.999802 0.000000 0.000000 0.888198 4.478104 -1.760391 139.999802
15 139.999802 0.000000 0.000000 1.315366 4.702148 -3.707147 139.999802
[Rope4_Seg08]
14 139.999924 0.000000 0.000119 -0.834330 2.762825 -1.225609 139.999924
15 139.999924 0.000000 0.000119 -0.551172 2.825143 -2.352146 139.999924
[Rope4_Seg09]
14 90.185791 0.000060 0.000060 -135.617828 2.228885 0.850567 90.185791
15 90.185791 0.000060 0.000060 -135.617828 2.228885 0.850567 90.185791
[L_rear_hand01]
14 101.696655 -8.392275 -7.654577 -21.399752 -33.105400 122.636459 102.329041
15 101.696655 -8.392275 -7.654577 -18.919886 -34.466530 118.185951 102.329041
[L_rear_hand02]
14 102.726799 -1.568258 5.773216 78.723900 59.531788 166.383713 102.900848
15 102.726799 -1.568258 5.773216 77.226936 63.386848 164.679062 102.900848
[L_rear_hand03]
14 104.552910 9.721220 -10.420293 -172.062332 -23.429153 -119.922249 105.519653
15 104.552910 9.721220 -10.420293 -173.780411 -23.916815 -115.646576 105.519653
